<?xml version="1.0" standalone="no"?><!DOCTYPE svg PUBLIC "-//W3C//DTD SVG 1.1//EN" "http://www.w3.org/Graphics/SVG/1.1/DTD/svg11.dtd"><svg t="1769738682780" class="icon" viewBox="0 0 1024 1024" version="1.1" xmlns="http://www.w3.org/2000/svg" p-id="112041" xmlns:xlink="http://www.w3.org/1999/xlink" width="200" height="200"><path d="M682.666667 0a42.666667 42.666667 0 0 1 25.941333 8.789333l4.266667 3.712 207.061333 207.061334a64 64 0 0 1 18.432 38.954666l0.298667 6.314667V512a42.666667 42.666667 0 0 1-85.034667 4.992L853.333333 512V273.664L664.96 85.333333H170.666667v853.333334h341.333333a42.666667 42.666667 0 0 1 42.368 37.674666L554.666667 981.333333a42.666667 42.666667 0 0 1-37.674667 42.368L512 1024H149.333333a64 64 0 0 1-63.701333-57.856L85.333333 960V64A64 64 0 0 1 143.189333 0.298667L149.333333 0H682.666667z" fill="#495057" p-id="112042"></path><path d="M640 0a42.666667 42.666667 0 0 1 42.368 37.674667L682.666667 42.666667v213.333333h213.333333a42.666667 42.666667 0 0 1 42.368 37.674667L938.666667 298.666667a42.666667 42.666667 0 0 1-37.674667 42.368L896 341.333333h-234.666667a64 64 0 0 1-63.701333-57.856L597.333333 277.333333V42.666667a42.666667 42.666667 0 0 1 42.666667-42.666667z" fill="#495057" p-id="112043"></path><path d="M298.666667 682.666667m42.666666 0l128 0q42.666667 0 42.666667 42.666666l0 0q0 42.666667-42.666667 42.666667l-128 0q-42.666667 0-42.666666-42.666667l0 0q0-42.666667 42.666666-42.666666Z" fill="#495057" p-id="112044"></path><path d="M298.666667 512m42.666666 0l213.333334 0q42.666667 0 42.666666 42.666667l0 0q0 42.666667-42.666666 42.666666l-213.333334 0q-42.666667 0-42.666666-42.666666l0 0q0-42.666667 42.666666-42.666667Z" fill="#495057" p-id="112045"></path><path d="M298.666667 341.333333m42.666666 0l128 0q42.666667 0 42.666667 42.666667l0 0q0 42.666667-42.666667 42.666667l-128 0q-42.666667 0-42.666666-42.666667l0 0q0-42.666667 42.666666-42.666667Z" fill="#495057" p-id="112046"></path><path d="M810.666667 554.666667a170.666667 170.666667 0 0 1 170.453333 162.133333L981.333333 725.333333a42.666667 42.666667 0 0 1 42.666667 42.666667v213.333333a42.666667 42.666667 0 0 1-42.666667 42.666667h-341.333333a42.666667 42.666667 0 0 1-42.666667-42.666667v-213.333333a42.666667 42.666667 0 0 1 42.666667-42.666667 170.666667 170.666667 0 0 1 170.666667-170.666666z m128 256h-256v128h256v-128z m-128-170.666667a85.333333 85.333333 0 0 0-85.333334 85.333333h170.666667a85.333333 85.333333 0 0 0-85.333333-85.333333z" fill="#495057" p-id="112047"></path></svg>